<svg width="44" height="44" viewBox="0 0 44 44" fill="none" xmlns="http://www.w3.org/2000/svg">
<circle cx="22" cy="22" r="22" fill="white"/>
<path d="M19.728 26.32H23.184C23.184 25.872 23.208 25.532 23.256 25.3C23.304 25.068 23.44 24.768 23.664 24.4C23.848 24.12 24.068 23.852 24.324 23.596C24.588 23.34 24.904 23.016 25.272 22.624C25.848 22.008 26.332 21.344 26.724 20.632C27.116 19.92 27.312 19.128 27.312 18.256C27.312 17.712 27.216 17.172 27.024 16.636C26.832 16.092 26.56 15.616 26.208 15.208C25.68 14.56 25.012 14.096 24.204 13.816C23.396 13.528 22.536 13.384 21.624 13.384C20.464 13.384 19.408 13.696 18.456 14.32C17.832 14.728 17.324 15.288 16.932 16C16.54 16.712 16.296 17.496 16.2 18.352H19.656C19.632 17.696 19.848 17.2 20.304 16.864C20.488 16.72 20.708 16.616 20.964 16.552C21.228 16.488 21.496 16.456 21.768 16.456C22.128 16.456 22.464 16.516 22.776 16.636C23.096 16.748 23.352 16.936 23.544 17.2C23.664 17.352 23.744 17.528 23.784 17.728C23.832 17.928 23.856 18.136 23.856 18.352C23.856 18.768 23.8 19.152 23.688 19.504C23.584 19.848 23.368 20.2 23.04 20.56C22.616 21.008 22.248 21.356 21.936 21.604C21.632 21.852 21.36 22.096 21.12 22.336C20.888 22.568 20.672 22.888 20.472 23.296C20.224 23.728 20.036 24.208 19.908 24.736C19.788 25.264 19.728 25.792 19.728 26.32ZM19.752 31H23.184V27.544H19.752V31Z" fill="#EB5757"/>
</svg>
